<?xml version="1.0" encoding="UTF-8"?>
<svg xmlns="http://www.w3.org/2000/svg" xmlns:xlink="http://www.w3.org/1999/xlink" id="Lag_1" data-name="Lag 1" viewBox="0 0 311.811 221.003">
  <defs>
    <style>.cls-1,.cls-5{fill:none;}.cls-2{fill:#dde8d4;}.cls-3{fill:#eef4ea;}.cls-4{clip-path:url(#clip-path);}.cls-5{stroke:#fff;stroke-miterlimit:10;stroke-width:0.5px;}.cls-6{fill:#1d1d1b;}</style>
    <clipPath id="clip-path">
      <rect class="cls-1" width="311.811" height="221.003"></rect>
    </clipPath>
  </defs>
  <path class="cls-2" d="M0,23.614H144.567V0H0Zm144.567,0H311.811V0H144.567Z"></path>
  <path class="cls-3" d="M144.567,185.1151v0Zm0-17.946v0Zm0-17.944v0Zm0-17.944v0Zm0-17.945v0Zm0-17.944v0Zm0-17.944v0Zm0-17.946v0Zm0-17.944v0Zm0-17.944v0H0v197.389H144.567v0H311.811V23.6141Z"></path>
  <g class="cls-4">
    <line class="cls-5" y1="149.2254" x2="144.567" y2="149.2254"></line>
    <line class="cls-5" x1="144.5669" y1="149.2254" x2="311.8109" y2="149.2254"></line>
  </g>
  <line class="cls-5" x1="144.5669" y1="166.9199" x2="144.5669" y2="149.4749"></line>
  <g class="cls-4">
    <line class="cls-5" y1="167.1699" x2="144.567" y2="167.1699"></line>
    <line class="cls-5" x1="144.5669" y1="167.1699" x2="311.8109" y2="167.1699"></line>
  </g>
  <line class="cls-5" x1="144.5669" y1="184.8644" x2="144.5669" y2="167.4194"></line>
  <g class="cls-4">
    <line class="cls-5" y1="185.1144" x2="144.567" y2="185.1144"></line>
    <line class="cls-5" x1="144.5669" y1="185.1144" x2="311.8109" y2="185.1144"></line>
  </g>
  <line class="cls-5" x1="144.5669" y1="202.8089" x2="144.5669" y2="185.3639"></line>
  <g class="cls-4">
    <line class="cls-5" y1="203.0589" x2="144.567" y2="203.0589"></line>
    <line class="cls-5" x1="144.5669" y1="203.0589" x2="311.8109" y2="203.0589"></line>
    <line class="cls-5" x1="144.5669" y1="221.0034" x2="144.5669" y2="203.3084"></line>
    <line class="cls-5" x1="144.5669" y1="23.3637" x2="144.5669" y2="-0.0003"></line>
    <line class="cls-5" y1="23.6137" x2="144.567" y2="23.6137"></line>
    <line class="cls-5" x1="144.5669" y1="23.6137" x2="311.8109" y2="23.6137"></line>
  </g>
  <line class="cls-5" x1="144.5669" y1="41.3082" x2="144.5669" y2="23.8632"></line>
  <g class="cls-4">
    <line class="cls-5" y1="41.5582" x2="144.567" y2="41.5582"></line>
    <line class="cls-5" x1="144.5669" y1="41.5582" x2="311.8109" y2="41.5582"></line>
  </g>
  <line class="cls-5" x1="144.5669" y1="59.2527" x2="144.5669" y2="41.8077"></line>
  <g class="cls-4">
    <line class="cls-5" y1="59.5027" x2="144.567" y2="59.5027"></line>
    <line class="cls-5" x1="144.5669" y1="59.5027" x2="311.8109" y2="59.5027"></line>
  </g>
  <line class="cls-5" x1="144.5669" y1="77.1972" x2="144.5669" y2="59.7522"></line>
  <g class="cls-4">
    <line class="cls-5" y1="77.4472" x2="144.567" y2="77.4472"></line>
    <line class="cls-5" x1="144.5669" y1="77.4472" x2="311.8109" y2="77.4472"></line>
  </g>
  <line class="cls-5" x1="144.5669" y1="95.1418" x2="144.5669" y2="77.6968"></line>
  <g class="cls-4">
    <line class="cls-5" y1="95.3918" x2="144.567" y2="95.3918"></line>
    <line class="cls-5" x1="144.5669" y1="95.3918" x2="311.8109" y2="95.3918"></line>
  </g>
  <line class="cls-5" x1="144.5669" y1="113.0863" x2="144.5669" y2="95.6413"></line>
  <g class="cls-4">
    <line class="cls-5" y1="113.3363" x2="144.567" y2="113.3363"></line>
    <line class="cls-5" x1="144.5669" y1="113.3363" x2="311.8109" y2="113.3363"></line>
  </g>
  <line class="cls-5" x1="144.5669" y1="131.0308" x2="144.5669" y2="113.5858"></line>
  <g class="cls-4">
    <line class="cls-5" y1="131.2808" x2="144.567" y2="131.2808"></line>
    <line class="cls-5" x1="144.5669" y1="131.2808" x2="311.8109" y2="131.2808"></line>
  </g>
  <line class="cls-5" x1="144.5669" y1="148.9754" x2="144.5669" y2="131.5304"></line>
  <path class="cls-6" d="M6.4258,15.11V8.8082H9.8286v.8462H7.686v1.9175H9.7837v.8554H7.686V15.11Z"></path>
  <path class="cls-6" d="M10.4482,12.8321a2.2575,2.2575,0,0,1,2.377-2.3315,2.2726,2.2726,0,0,1,2.3227,2.3227,2.2789,2.2789,0,0,1-2.3408,2.3945A2.2761,2.2761,0,0,1,10.4482,12.8321Zm3.4664,0c0-1.0532-.4141-1.6743-1.1255-1.6743-.6753,0-1.1075.6479-1.1075,1.6743,0,1.0806.4141,1.7285,1.1255,1.7285C13.5005,14.5606,13.9146,13.9127,13.9146,12.8321Z"></path>
  <path class="cls-6" d="M16.2085,15.11V10.6085H17.397v.7925l.1709-.2881c.2163-.36.4682-.6123.8193-.6123a1.24,1.24,0,0,1,.8374.414l-.4414.8555a1.173,1.173,0,0,0-.5669-.189.7648.7648,0,0,0-.7021.54,3.0654,3.0654,0,0,0-.1172,1.0713V15.11Z"></path>
  <path class="cls-6" d="M25.7407,15.11V12.49a1.4054,1.4054,0,0,0-.1616-.8555.7338.7338,0,0,0-.6572-.3242.8827.8827,0,0,0-.8286.4776,1.8379,1.8379,0,0,0-.1079.8007V15.11H22.7969V12.526a1.6365,1.6365,0,0,0-.1441-.855.7254.7254,0,0,0-.6753-.36.8841.8841,0,0,0-.8281.4864,1.8661,1.8661,0,0,0-.0991.7563V15.11H19.853V10.6085H21.05v.6035a1.8125,1.8125,0,0,1,1.4858-.7114,1.3883,1.3883,0,0,1,1.3145.7114,2.08,2.08,0,0,1,1.5664-.7114,1.398,1.398,0,0,1,1.332.747A2.2823,2.2823,0,0,1,26.92,12.463V15.11Z"></path>
  <path class="cls-6" d="M32.1216,14.7139a3.3865,3.3865,0,0,1-1.7559.5039,2.3159,2.3159,0,0,1-1.6382-.6123,2.4882,2.4882,0,0,1-.7475-1.8183,2.3363,2.3363,0,0,1,.6665-1.6743,2.2676,2.2676,0,0,1,1.6025-.6123c1.3682,0,1.9263,1.0263,1.9263,2.3227v.1529H29.2314a1.3536,1.3536,0,0,0,1.3868,1.4765,2.2464,2.2464,0,0,0,1.17-.36Zm-1.0083-2.3408c0-.0542-.0093-.1709-.0093-.2158-.0449-.63-.3242-1.0176-.8643-1.0176-.5849,0-.9541.4414-.99,1.2334Z"></path>
  <path class="cls-6" d="M33.2358,15.11V8.502h1.1885V15.11Z"></path>
  <path class="cls-6" d="M38.501,15.11V11.2208h-.729v-.6123h.729v-.4322a1.4873,1.4873,0,0,1,.36-1.17,1.5935,1.5935,0,0,1,1.2154-.5039,2.118,2.118,0,0,1,.9.1983l-.2071.5849a1.3465,1.3465,0,0,0-.4677-.081.55.55,0,0,0-.5406.2969,1.1562,1.1562,0,0,0-.081.5761v.5313h1.0805v.6123H39.68V15.11Z"></path>
  <path class="cls-6" d="M41.0479,12.8321a2.35,2.35,0,0,1,4.7-.0088,2.35,2.35,0,1,1-4.7.0088Zm3.4663,0c0-1.0532-.4141-1.6743-1.1255-1.6743-.6753,0-1.1074.6479-1.1074,1.6743,0,1.0806.414,1.7285,1.1254,1.7285C44.1,14.5606,44.5142,13.9127,44.5142,12.8321Z"></path>
  <path class="cls-6" d="M46.8076,15.11V10.6085h1.1885v.7925l.1709-.2881c.2163-.36.4683-.6123.8193-.6123a1.24,1.24,0,0,1,.8374.414l-.4414.8555a1.173,1.173,0,0,0-.5669-.189.7648.7648,0,0,0-.7021.54,3.0654,3.0654,0,0,0-.1172,1.0713V15.11Z"></path>
  <path class="cls-6" d="M53.1255,15.11V11.2208h-.729v-.6123h.729v-.4322A1.4772,1.4772,0,0,1,54.6738,8.502a1.9472,1.9472,0,0,1,.8824.1983l-.2071.5849a1.3554,1.3554,0,0,0-.45-.081.5289.5289,0,0,0-.5312.2969,1.3685,1.3685,0,0,0-.063.5761v.5313h1.0806v.6123H54.3047V15.11Zm2.8628,0V8.502h1.1972V15.11Z"></path>
  <path class="cls-6" d="M62.3882,14.7139a3.3865,3.3865,0,0,1-1.7559.5039,2.3159,2.3159,0,0,1-1.6382-.6123,2.4882,2.4882,0,0,1-.7475-1.8183,2.3363,2.3363,0,0,1,.6665-1.6743,2.2676,2.2676,0,0,1,1.6025-.6123c1.3682,0,1.9263,1.0263,1.9263,2.3227v.1529H59.498a1.3536,1.3536,0,0,0,1.3868,1.4765,2.2464,2.2464,0,0,0,1.17-.36ZM61.38,12.3731c0-.0542-.0093-.1709-.0093-.2158-.0449-.63-.3242-1.0176-.8643-1.0176-.5849,0-.9541.4414-.99,1.2334Z"></path>
  <path class="cls-6" d="M63.5024,15.11V10.6085h1.1885v.7925l.1709-.2881c.2163-.36.4683-.6123.8194-.6123a1.24,1.24,0,0,1,.8374.414l-.4415.8555a1.1727,1.1727,0,0,0-.5668-.189.7648.7648,0,0,0-.7022.54,3.0679,3.0679,0,0,0-.1172,1.0713V15.11Z"></path>
  <path class="cls-6" d="M69.5151,15.11a1.4233,1.4233,0,0,1-.1084-.603,1.823,1.823,0,0,1-1.44.7109A1.2817,1.2817,0,0,1,66.67,13.9127a1.4918,1.4918,0,0,1,.8194-1.2964,4.8321,4.8321,0,0,1,1.1972-.45c.1621-.0361.5855-.1441.7476-.1709-.1084-.4775-.3423-.8106-.91-.8106a1.7428,1.7428,0,0,0-1.1343.4864l-.3872-.5581a2.7332,2.7332,0,0,1,1.7827-.6123,1.7973,1.7973,0,0,1,1.5127.6123,1.9591,1.9591,0,0,1,.2969,1.3593v1.2061a3.3526,3.3526,0,0,0,.18,1.4316Zm-.081-2.44c-.1533.0273-.2974.0723-.4776.1172-.5937.144-1.143.396-1.143.9634a.6264.6264,0,0,0,.6123.666.9936.9936,0,0,0,.9092-.666,2.1437,2.1437,0,0,0,.0991-.6485Z"></path>
  <path class="cls-6" d="M74.501,14.93a2.7994,2.7994,0,0,1-1.2154.288,1.3371,1.3371,0,0,1-1.1523-.5219c-.18-.2613-.2251-.4683-.2251-1.1616V11.2208h-.63v-.6123h.63V9.5191l1.1885-.2607v1.35h1.1792v.6123H73.0967v2.0708c0,.9.1621,1.206.63,1.206a1.2038,1.2038,0,0,0,.5668-.144Z"></path>
  <path class="cls-6" d="M74.8242,12.8321a2.35,2.35,0,0,1,4.7-.0088,2.35,2.35,0,1,1-4.7.0088Zm3.4663,0c0-1.0532-.414-1.6743-1.1255-1.6743-.6753,0-1.1074.6479-1.1074,1.6743,0,1.0806.4141,1.7285,1.1255,1.7285C77.8765,14.5606,78.2905,13.9127,78.2905,12.8321Z"></path>
  <path class="cls-6" d="M86.4717,15.11V12.49a1.4008,1.4008,0,0,0-.1621-.8555.7321.7321,0,0,0-.6568-.3242.8828.8828,0,0,0-.8286.4776,1.8394,1.8394,0,0,0-.1079.8007V15.11H83.5278V12.526a1.6378,1.6378,0,0,0-.144-.855.7254.7254,0,0,0-.6748-.36.8842.8842,0,0,0-.8286.4864,1.8661,1.8661,0,0,0-.0991.7563V15.11H80.584V10.6085h1.1973v.6035a1.8125,1.8125,0,0,1,1.4858-.7114,1.3876,1.3876,0,0,1,1.314.7114,2.0812,2.0812,0,0,1,1.5668-.7114,1.3981,1.3981,0,0,1,1.3321.747,2.2834,2.2834,0,0,1,.1714,1.2154V15.11Z"></path>
  <path class="cls-6" d="M89.0171,9.2491a.68.68,0,1,1,1.3594-.0269.6821.6821,0,0,1-.6753.6841A.6726.6726,0,0,1,89.0171,9.2491Zm.09,5.8608V10.6085h1.188V15.11Z"></path>
  <path class="cls-6" d="M94.9131,14.4439a1.7621,1.7621,0,0,1-1.4766.7739,2.0971,2.0971,0,0,1-2.0078-2.3408,2.1981,2.1981,0,0,1,2.1069-2.3764,1.534,1.534,0,0,1,1.3775.72v-.6123h1.1792v3.5742a5.3666,5.3666,0,0,1-.09,1.3955A2.1987,2.1987,0,0,1,93.5986,17.36a4.2941,4.2941,0,0,1-1.8994-.4321l.2339-.7378a2.899,2.899,0,0,0,1.4673.4048A1.3432,1.3432,0,0,0,94.76,15.857a2.3624,2.3624,0,0,0,.1533-1.062Zm0-1.6386c0-.99-.4321-1.5933-1.1524-1.5933-.6665,0-1.0712.5937-1.0712,1.5845,0,1.0258.4409,1.7192,1.0981,1.7192C94.4536,14.5157,94.9131,13.8316,94.9131,12.8053Z"></path>
  <path class="cls-6" d="M100.0239,9.2491a.68.68,0,1,1,1.3594-.0269.6821.6821,0,0,1-.6753.6841A.6727.6727,0,0,1,100.0239,9.2491Zm.09,5.8608V10.6085h1.1879V15.11Z"></path>
  <path class="cls-6" d="M102.4355,12.8321a2.35,2.35,0,0,1,4.7-.0088,2.35,2.35,0,1,1-4.7.0088Zm3.4664,0c0-1.0532-.4141-1.6743-1.1255-1.6743-.6753,0-1.1075.6479-1.1075,1.6743,0,1.0806.4141,1.7285,1.1255,1.7285C105.4878,14.5606,105.9019,13.9127,105.9019,12.8321Z"></path>
  <path class="cls-6" d="M111.3018,15.11V12.5352a1.5942,1.5942,0,0,0-.1441-.8462.7554.7554,0,0,0-.729-.3784.932.932,0,0,0-.9272.5493,2.0168,2.0168,0,0,0-.1084.8194V15.11h-1.1973V10.6085h1.1973v.6035a1.9245,1.9245,0,0,1,1.5395-.7114,1.41,1.41,0,0,1,1.4224.8462,3.003,3.003,0,0,1,.1352,1.2065V15.11Z"></path>
  <path class="cls-6" d="M155.4043,15.11l-3.4033-4.3842V15.11h-1.0083V8.8082h.8462l3.3847,4.3843V8.8082h1.0176V15.11Z"></path>
  <path class="cls-6" d="M160.1553,15.11a1.4141,1.4141,0,0,1-.1084-.603,1.8218,1.8218,0,0,1-1.44.7109,1.2813,1.2813,0,0,1-1.2959-1.3051,1.49,1.49,0,0,1,.8194-1.2964,4.8259,4.8259,0,0,1,1.1972-.45c.1622-.0361.585-.1441.7471-.1709-.1084-.4775-.3418-.8106-.9092-.8106a1.7437,1.7437,0,0,0-1.1347.4864l-.3867-.5581a2.73,2.73,0,0,1,1.7822-.6123,1.7987,1.7987,0,0,1,1.5127.6123,1.96,1.96,0,0,1,.2969,1.3593v1.2061a3.3708,3.3708,0,0,0,.18,1.4316Zm-.0811-2.44c-.1533.0273-.2969.0723-.4775.1172-.5938.144-1.1436.396-1.1436.9634a.6267.6267,0,0,0,.6123.666.9919.9919,0,0,0,.9092-.666,2.1115,2.1115,0,0,0,.1-.6485Z"></path>
  <path class="cls-6" d="M163.6465,15.11l-1.8-4.3662,1.1787-.2163,1.1709,3.1509,1.2422-3.1509.9629.18L164.4658,15.11Z"></path>
  <path class="cls-6" d="M170.2617,15.11V12.5352a1.6,1.6,0,0,0-.1435-.8462.7567.7567,0,0,0-.73-.3784.9334.9334,0,0,0-.9278.5493,2.0224,2.0224,0,0,0-.1074.8194V15.11h-1.1972V10.6085h1.1972v.6035a1.9238,1.9238,0,0,1,1.5391-.7114,1.4118,1.4118,0,0,1,1.4228.8462,3.0222,3.0222,0,0,1,.1348,1.2065V15.11Z"></path>
  <path class="cls-6" d="M9.2524,35.9986a3.1271,3.1271,0,0,1-3.1508-3.331,3.0687,3.0687,0,0,1,3.187-3.1871,3.0859,3.0859,0,0,1,3.1147,3.1783A3.1243,3.1243,0,0,1,9.2524,35.9986Zm-.0361-5.8877c-1.4585,0-2.1514,1.3233-2.1514,2.6289,0,1.3413.7022,2.6289,2.1875,2.6289,1.2964,0,2.1875-1.0537,2.1875-2.6108C11.44,31.1641,10.5669,30.1109,9.2163,30.1109Z"></path>
  <path class="cls-6" d="M17.4971,35.8907v-3.124H14.4629v3.124H13.59V29.5889h.8731v2.53h3.0342v-2.53h.873v6.3018Z"></path>
  <path class="cls-6" d="M19.314,30.5533V30.15h2.957v.4033Z"></path>
  <path class="cls-6" d="M154.9,35.8887v-3.124h-3.0342v3.124h-.873V29.587h.873v2.53H154.9v-2.53h.8735v6.3017Z"></path>
  <path class="cls-6" d="M158.7061,36.5548a3.1251,3.1251,0,0,1-.7832,1.2153,1.8426,1.8426,0,0,1-1.2422.3691h-.19v-.603h.1983a1.0715,1.0715,0,0,0,1.1435-.5942c.1084-.18.3242-.6392.63-1.3052l-1.8272-4.1055.792-.2158,1.3868,3.4839,1.4765-3.4839.666.1621Z"></path>
  <path class="cls-6" d="M165.0508,35.8887v-.7021a1.9251,1.9251,0,0,1-1.5752.81,2.1178,2.1178,0,0,1-2.0254-2.35,2.2055,2.2055,0,0,1,2.1689-2.3676,1.6371,1.6371,0,0,1,1.4317.6753V29.2808h.7744v6.6079Zm-1.3858-4.0419c-.8291,0-1.35.6479-1.35,1.7011,0,1.1436.5312,1.8819,1.3408,1.8819.8379,0,1.4043-.7564,1.4043-1.8726C165.06,32.5216,164.5107,31.8468,163.665,31.8468Z"></path>
  <path class="cls-6" d="M169.4072,32.2789a1.4719,1.4719,0,0,0-.6025-.2251.7.7,0,0,0-.6309.5581,3.6552,3.6552,0,0,0-.1172,1.1431v2.1337h-.81V31.3873h.81v.63l.19-.2881a.9046.9046,0,0,1,.7383-.45,1.1505,1.1505,0,0,1,.8105.45Z"></path>
  <path class="cls-6" d="M172.2334,35.9967a2.2091,2.2091,0,0,1-2.2148-2.3858,2.1822,2.1822,0,0,1,2.2324-2.3315,2.3653,2.3653,0,0,1-.0176,4.7173Zm-.0273-4.15c-.81,0-1.3233.6748-1.3233,1.7641,0,1.1524.4951,1.8189,1.3594,1.8189.8281,0,1.3232-.6846,1.3232-1.8277C173.5654,32.5128,173.0527,31.8468,172.2061,31.8468Z"></path>
  <path class="cls-6" d="M178.2363,35.9786l-1.3779-2.0073-1.4307,2.0073-.5859-.36,1.6572-2.1338-1.3955-1.8183.7285-.36,1.1436,1.6475,1.18-1.6475.5849.2793-1.4043,1.8365,1.6289,2.1967Z"></path>
  <path class="cls-6" d="M180.17,30.4781a.5089.5089,0,0,1-.5127-.4951.4889.4889,0,0,1,.5215-.5313.5.5,0,0,1,.5049.5132A.519.519,0,0,1,180.17,30.4781Zm-.4053,5.4106V31.3873h.8106v4.5014Z"></path>
  <path class="cls-6" d="M185.2021,35.8887v-.7021a1.925,1.925,0,0,1-1.5751.81,2.1178,2.1178,0,0,1-2.0254-2.35,2.2054,2.2054,0,0,1,2.1689-2.3676,1.6369,1.6369,0,0,1,1.4316.6753V29.2808h.7745v6.6079Zm-1.3857-4.0419c-.8291,0-1.3506.6479-1.3506,1.7011,0,1.1436.5313,1.8819,1.3408,1.8819.8379,0,1.4043-.7564,1.4043-1.8726C185.2109,32.5216,184.6621,31.8468,183.8164,31.8468Z"></path>
  <path class="cls-6" d="M7.731,51.3682v-.5669a1.8067,1.8067,0,0,0,.9814-.2612,1.3189,1.3189,0,0,0,.522-1.1435,1.1153,1.1153,0,0,0-.5669-1.08,2.0331,2.0331,0,0,0-.9634-.1533H7.2988V53.835h-.873V47.5333H7.7222a2.8122,2.8122,0,0,1,1.6836.3149,1.6328,1.6328,0,0,1,.7558,1.4317A2.1829,2.1829,0,0,1,7.731,51.3682Z"></path>
  <path class="cls-6" d="M14.0762,53.9429a3.1271,3.1271,0,0,1-3.1509-3.331,3.0687,3.0687,0,0,1,3.187-3.187,3.0859,3.0859,0,0,1,3.1148,3.1782A3.1243,3.1243,0,0,1,14.0762,53.9429ZM14.04,48.0553c-1.458,0-2.1513,1.3232-2.1513,2.6289,0,1.3413.7021,2.6289,2.1875,2.6289,1.2964,0,2.1875-1.0537,2.1875-2.6109C16.2637,49.1085,15.3906,48.0553,14.04,48.0553Z"></path>
  <path class="cls-6" d="M20.1353,55.3643v1.169h-.4971v-1.169H17.8149v-.2627l2.0162-2.6591h.3042v2.5127h.5258v.4091Zm-.4971-2.1035c-.3506.5376-.5376.812-1.2036,1.6944h1.2036Z"></path>
  <path class="cls-6" d="M22.5229,49.8526A2.4044,2.4044,0,0,1,21.5,49.6187l.1582-.3564a1.7228,1.7228,0,0,0,.8.1929.801.801,0,0,0,.8769-.8125.7481.7481,0,0,0-.5087-.7364,2.1481,2.1481,0,0,0-.8-.0879v-.3447a1.5206,1.5206,0,0,0,.7539-.2158.7491.7491,0,0,0,.3213-.6489.5554.5554,0,0,0-.62-.59,1.3756,1.3756,0,0,0-.789.2749l-.17-.3452a2.0017,2.0017,0,0,1,1.0581-.3271c.6661,0,1.11.374,1.11.935a1.1321,1.1321,0,0,1-.76,1.0113c.666.14,1.0166.5141,1.0166,1.0576A1.3075,1.3075,0,0,1,22.5229,49.8526Z"></path>
  <path class="cls-6" d="M24.5718,48.4967v-.4034h2.957v.4034Z"></path>
  <path class="cls-6" d="M152.2979,51.3668V50.8a1.8076,1.8076,0,0,0,.9814-.2612,1.32,1.32,0,0,0,.522-1.1436,1.1153,1.1153,0,0,0-.5669-1.08,2.0331,2.0331,0,0,0-.9634-.1533h-.4053v5.6719h-.873V47.5318h1.2964a2.8113,2.8113,0,0,1,1.6836.315,1.6325,1.6325,0,0,1,.7558,1.4316A2.183,2.183,0,0,1,152.2979,51.3668Z"></path>
  <path class="cls-6" d="M158.833,53.8336v-2.521a1.9316,1.9316,0,0,0-.1621-1.0259.9334.9334,0,0,0-.8916-.4683,1.1631,1.1631,0,0,0-1.1162.6661,2.2465,2.2465,0,0,0-.126.9814v2.3677h-.8105V47.2257h.8105V49.9a2.0625,2.0625,0,0,1,1.5576-.6753,1.366,1.366,0,0,1,1.4307.9,3.3966,3.3966,0,0,1,.1084,1.188v2.521Z"></path>
  <path class="cls-6" d="M162.9268,53.9415a2.2092,2.2092,0,0,1-2.2149-2.3858,2.1822,2.1822,0,0,1,2.2324-2.3315,2.3653,2.3653,0,0,1-.0175,4.7173Zm-.0274-4.15c-.81,0-1.3232.6748-1.3232,1.7641,0,1.1524.4951,1.8189,1.3593,1.8189.8282,0,1.3233-.6846,1.3233-1.8276C164.2588,50.4576,163.7461,49.7916,162.8994,49.7916Z"></path>
  <path class="cls-6" d="M167.3008,53.9415a1.9533,1.9533,0,0,1-1.4317-.5762l.3965-.45a1.3141,1.3141,0,0,0,.9629.4595c.459,0,.7559-.2525.7559-.6572,0-.3423-.1172-.4952-.7559-.9546-.4775-.3418-1.0713-.711-1.0713-1.3594a1.2925,1.2925,0,0,1,1.4219-1.1792,1.865,1.865,0,0,1,1.1709.4053l-.3242.414a1.32,1.32,0,0,0-.8194-.2881c-.3867,0-.666.2071-.666.504,0,.2343.126.3964.54.6933,1.0986.7925,1.3418,1.0806,1.3418,1.6743A1.3642,1.3642,0,0,1,167.3008,53.9415Z"></path>
  <path class="cls-6" d="M172.26,53.9415a1.71,1.71,0,0,1-1.4317-.711v2.8536h-.7832v-6.752h.7832v.6846a1.8711,1.8711,0,0,1,1.5938-.7925,2.0374,2.0374,0,0,1,2.0078,2.26A2.255,2.255,0,0,1,172.26,53.9415Zm-.0274-4.15c-.8457,0-1.4043.729-1.4043,1.8545,0,1.0713.5313,1.7285,1.4229,1.7285.98,0,1.3144-1.0176,1.3144-1.8545C173.5654,50.4483,173.0518,49.7916,172.2324,49.7916Z"></path>
  <path class="cls-6" d="M178.6143,53.8336v-2.521a1.9313,1.9313,0,0,0-.1622-1.0259.9333.9333,0,0,0-.8916-.4683,1.1633,1.1633,0,0,0-1.1162.6661,2.2469,2.2469,0,0,0-.1259.9814v2.3677h-.8106V47.2257h.8106V49.9a2.0623,2.0623,0,0,1,1.5576-.6753,1.3658,1.3658,0,0,1,1.4306.9,3.394,3.394,0,0,1,.1084,1.188v2.521Z"></path>
  <path class="cls-6" d="M183.2939,53.8336a1.4539,1.4539,0,0,1-.1347-.6753,1.7169,1.7169,0,0,1-1.459.7832,1.2168,1.2168,0,0,1-1.26-1.2691,1.4934,1.4934,0,0,1,.9268-1.3237,6.2712,6.2712,0,0,1,1.0351-.3872,7.1335,7.1335,0,0,1,.7569-.1709c-.0635-.585-.2793-1.0444-.9727-1.0444a1.7918,1.7918,0,0,0-1.1435.4863l-.3145-.4053a2.2508,2.2508,0,0,1,1.6026-.603,1.6053,1.6053,0,0,1,1.3593.5674c.1983.2881.2784.4858.2784,1.2964v1.3051a3.11,3.11,0,0,0,.1982,1.4405Zm-.1171-2.5117a4.1693,4.1693,0,0,0-.54.1171c-.7383.1617-1.3594.4952-1.3594,1.125a.682.682,0,0,0,.6934.7476,1.1923,1.1923,0,0,0,1.1074-.8374,2.18,2.18,0,0,0,.1074-.7114Z"></path>
  <path class="cls-6" d="M186.74,53.9415a1.2411,1.2411,0,0,1-1.0625-.5313c-.1621-.2519-.1982-.4677-.1982-1.17V49.8092h-.63v-.4771h.63V48.2428l.8018-.2608v1.35H187.46v.4771h-1.1787v2.3769c0,.9185.1435,1.1885.6386,1.1885a1.2169,1.2169,0,0,0,.6035-.1621l.1983.4409A1.7988,1.7988,0,0,1,186.74,53.9415Z"></path>
  <path class="cls-6" d="M11.1792,66.5489A2.6756,2.6756,0,0,0,9.5137,66a2.3938,2.3938,0,0,0-2.4488,2.5928,2.5026,2.5026,0,0,0,2.5118,2.665,2.7638,2.7638,0,0,0,1.5483-.46l.333.5132a3.5921,3.5921,0,0,1-2.0434.5762,3.14,3.14,0,0,1-3.313-3.2046A3.3042,3.3042,0,0,1,9.55,65.3692a3.4035,3.4035,0,0,1,1.9893.63Z"></path>
  <path class="cls-6" d="M15.1563,71.8873a3.1271,3.1271,0,0,1-3.1509-3.3311,3.151,3.151,0,1,1,6.3017-.0088A3.1243,3.1243,0,0,1,15.1563,71.8873ZM15.12,66c-1.458,0-2.1513,1.3232-2.1513,2.6289,0,1.3413.7021,2.6289,2.1875,2.6289,1.2963,0,2.1875-1.0537,2.1875-2.6108C17.3438,67.0528,16.4707,66,15.12,66Z"></path>
  <path class="cls-6" d="M20.2358,74.5484a2.4044,2.4044,0,0,1-1.0229-.2339l.1582-.3564a1.7228,1.7228,0,0,0,.8.1929.8012.8012,0,0,0,.8769-.8125.7481.7481,0,0,0-.5087-.7364,2.1509,2.1509,0,0,0-.8-.0874V72.17a1.5158,1.5158,0,0,0,.7539-.2163.7475.7475,0,0,0,.3213-.6484.5554.5554,0,0,0-.62-.59,1.3756,1.3756,0,0,0-.789.2749l-.1695-.3447a1.998,1.998,0,0,1,1.0581-.3276c.666,0,1.11.374,1.11.935a1.1321,1.1321,0,0,1-.76,1.0113c.666.14,1.0166.5141,1.0166,1.0576A1.3075,1.3075,0,0,1,20.2358,74.5484Z"></path>
  <path class="cls-6" d="M22.3433,67.7271v-.3095c1.145-1.1866,1.14-1.1866,1.4609-1.5489.4614-.52.6367-.8418.6367-1.1689a.6611.6611,0,0,0-.6777-.707,1.2545,1.2545,0,0,0-.8765.4209l-.2807-.2574a1.5691,1.5691,0,0,1,1.2451-.59,1.0793,1.0793,0,0,1,1.2036,1.064c0,.5317-.2163.853-1.3267,1.9985-.4092.4209-.5083.5317-.6137.6484h1.9638v.45Z"></path>
  <path class="cls-6" d="M25.6426,66.4415v-.4033H28.6v.4033Z"></path>
  <path class="cls-6" d="M155.7461,66.5474a2.6772,2.6772,0,0,0-1.6655-.5493,2.3939,2.3939,0,0,0-2.4488,2.5928,2.5026,2.5026,0,0,0,2.5118,2.665,2.7675,2.7675,0,0,0,1.5488-.4594l.333.5131a3.5911,3.5911,0,0,1-2.044.5762,3.14,3.14,0,0,1-3.3129-3.2051,3.3037,3.3037,0,0,1,3.4482-3.3125,3.4058,3.4058,0,0,1,1.99.63Z"></path>
  <path class="cls-6" d="M159.5879,71.7779a1.4538,1.4538,0,0,1-.1348-.6753,1.7168,1.7168,0,0,1-1.459.7832,1.2167,1.2167,0,0,1-1.26-1.269,1.4935,1.4935,0,0,1,.9267-1.3238,6.2689,6.2689,0,0,1,1.0352-.3872,7.1758,7.1758,0,0,1,.7568-.1709c-.0635-.5849-.2793-1.0444-.9726-1.0444a1.7919,1.7919,0,0,0-1.1436.4863l-.3144-.4052a2.25,2.25,0,0,1,1.6025-.6031,1.6054,1.6054,0,0,1,1.3594.5674c.1982.2881.2793.4859.2793,1.2964v1.3052a3.1119,3.1119,0,0,0,.1972,1.44Zm-.1172-2.5117a4.1837,4.1837,0,0,0-.54.1172c-.7383.1616-1.3594.4951-1.3594,1.125a.682.682,0,0,0,.6933.7475,1.1924,1.1924,0,0,0,1.1075-.8374,2.1791,2.1791,0,0,0,.1074-.7114Z"></path>
  <path class="cls-6" d="M163.8359,68.168a1.4734,1.4734,0,0,0-.6025-.2251.7.7,0,0,0-.6309.5582,3.6631,3.6631,0,0,0-.1162,1.143v2.1338h-.81V67.2764h.81v.63l.1885-.2881a.9049.9049,0,0,1,.7383-.45,1.1509,1.1509,0,0,1,.8105.45Z"></path>
  <path class="cls-6" d="M166.9775,71.8858a1.7084,1.7084,0,0,1-1.4316-.7109v.603h-.7832V65.17h.7832v2.791a1.8707,1.8707,0,0,1,1.5928-.7925,2.0369,2.0369,0,0,1,2.0078,2.26A2.2542,2.2542,0,0,1,166.9775,71.8858Zm-.0273-4.15c-.8467,0-1.4043.729-1.4043,1.8545,0,1.0713.5312,1.7285,1.4219,1.7285a1.0567,1.0567,0,0,0,.8379-.3423,2.3232,2.3232,0,0,0,.4765-1.5122C168.2822,68.3927,167.77,67.7359,166.95,67.7359Z"></path>
  <path class="cls-6" d="M172.1338,71.8858A2.2091,2.2091,0,0,1,169.9189,69.5a2.1823,2.1823,0,0,1,2.2325-2.3316,2.3653,2.3653,0,0,1-.0176,4.7173Zm-.0274-4.15c-.81,0-1.3232.6748-1.3232,1.7642,0,1.1523.4951,1.8188,1.3594,1.8188.8281,0,1.3232-.6845,1.3232-1.8276C173.4658,68.4019,172.9531,67.7359,172.1064,67.7359Z"></path>
  <path class="cls-6" d="M178.6406,71.7779v-2.521a1.9343,1.9343,0,0,0-.1611-1.0259.9343.9343,0,0,0-.8916-.4682,1.1612,1.1612,0,0,0-1.1162.666,2.2313,2.2313,0,0,0-.126.9814v2.3677h-.81V67.2764h.81v.5674a2.05,2.05,0,0,1,1.5576-.6753,1.3768,1.3768,0,0,1,1.4307.9,3.3969,3.3969,0,0,1,.1084,1.188v2.521Z"></path>
  <path class="cls-6" d="M183.3838,71.7779a1.4538,1.4538,0,0,1-.1348-.6753,1.7168,1.7168,0,0,1-1.459.7832,1.2167,1.2167,0,0,1-1.26-1.269,1.4935,1.4935,0,0,1,.9267-1.3238,6.2689,6.2689,0,0,1,1.0352-.3872,7.1758,7.1758,0,0,1,.7568-.1709c-.0635-.5849-.2793-1.0444-.9726-1.0444a1.7919,1.7919,0,0,0-1.1436.4863l-.3144-.4052a2.25,2.25,0,0,1,1.6025-.6031,1.6054,1.6054,0,0,1,1.3594.5674c.1982.2881.2783.4859.2783,1.2964v1.3052a3.1092,3.1092,0,0,0,.1982,1.44Zm-.1172-2.5117a4.1837,4.1837,0,0,0-.54.1172c-.7383.1616-1.3594.4951-1.3594,1.125a.682.682,0,0,0,.6933.7475,1.1924,1.1924,0,0,0,1.1075-.8374,2.1791,2.1791,0,0,0,.1074-.7114Z"></path>
  <path class="cls-6" d="M186.8311,71.8858a1.242,1.242,0,0,1-1.0625-.5312c-.1622-.252-.1983-.4678-.1983-1.17V67.7535h-.63v-.4771h.63V66.1871l.8018-.2608v1.35h1.1787v.4771h-1.1787V70.13c0,.9185.1435,1.1885.6386,1.1885a1.2172,1.2172,0,0,0,.6036-.1621l.1982.4409A1.7979,1.7979,0,0,1,186.8311,71.8858Z"></path>
  <path class="cls-6" d="M7.9473,89.8316a2.9591,2.9591,0,0,1-1.8008-.5942l.414-.585a2.2527,2.2527,0,0,0,1.3956.5493.9972.9972,0,0,0,1.1162-.9907,1.2406,1.2406,0,0,0-.5489-.9809,11.1113,11.1113,0,0,0-1.1074-.8824,1.8669,1.8669,0,0,1-.9722-1.5127c0-.8818.81-1.5214,1.9083-1.5214a2.3676,2.3676,0,0,1,1.5668.5673l-.4775.5132a1.6457,1.6457,0,0,0-1.1162-.45.8513.8513,0,0,0-.9541.8281c0,.3155.1348.5406.5312.8643.1436.1172.1978.1621.99.7564.8281.621,1.0981,1.0712,1.0981,1.7377A1.8277,1.8277,0,0,1,7.9473,89.8316Z"></path>
  <path class="cls-6" d="M14.0405,89.8316a3.1271,3.1271,0,0,1-3.1509-3.331,3.0687,3.0687,0,0,1,3.1871-3.187,3.0858,3.0858,0,0,1,3.1147,3.1782A3.1243,3.1243,0,0,1,14.0405,89.8316Zm-.0361-5.8877c-1.4585,0-2.1514,1.3233-2.1514,2.6289,0,1.3413.7022,2.6289,2.1875,2.6289,1.2964,0,2.1875-1.0537,2.1875-2.6108C16.228,84.9971,15.355,83.9439,14.0044,83.9439Z"></path>
  <path class="cls-6" d="M20.0991,91.2535v1.1689h-.497V91.2535H17.7788v-.2627l2.0161-2.6592h.3042v2.5127h.5259v.4092Zm-.497-2.104c-.3506.5381-.5376.8125-1.2037,1.6948h1.2037Z"></path>
  <path class="cls-6" d="M21.2363,85.6715v-.31c1.1455-1.1865,1.14-1.1865,1.461-1.5488.4614-.52.6367-.8418.6367-1.169a.6612.6612,0,0,0-.6777-.707,1.2545,1.2545,0,0,0-.8765.4209l-.2808-.2573a1.569,1.569,0,0,1,1.2451-.59,1.0793,1.0793,0,0,1,1.2037,1.064c0,.5317-.2164.853-1.3267,1.9985-.4092.4209-.5083.5318-.6133.6485h1.9634v.45Z"></path>
  <path class="cls-6" d="M24.5356,84.3858v-.4033h2.9571v.4033Z"></path>
  <path class="cls-6" d="M152.5142,89.8306a2.9591,2.9591,0,0,1-1.8008-.5942l.414-.585a2.2529,2.2529,0,0,0,1.3955.5494.997.997,0,0,0,1.1163-.9908,1.2407,1.2407,0,0,0-.5489-.9809,11.1023,11.1023,0,0,0-1.1074-.8823,1.8669,1.8669,0,0,1-.9722-1.5127c0-.8819.81-1.5215,1.9082-1.5215a2.366,2.366,0,0,1,1.5665.5674l-.4771.5131a1.6462,1.6462,0,0,0-1.1162-.45.8517.8517,0,0,0-.9541.8282c0,.3154.1348.54.5308.8642.1445.1172.1982.1621.9907.7564.8281.6211,1.0981,1.0713,1.0981,1.7378A1.8278,1.8278,0,0,1,152.5142,89.8306Z"></path>
  <path class="cls-6" d="M158.8594,89.7227v-.5674a2.0625,2.0625,0,0,1-1.5576.6753,1.3794,1.3794,0,0,1-1.44-.9,3.533,3.533,0,0,1-.1074-1.1884v-2.521h.81v2.521a1.9344,1.9344,0,0,0,.1621,1.0263.9338.9338,0,0,0,.8916.4678,1.1434,1.1434,0,0,0,1.1074-.6748,2.2084,2.2084,0,0,0,.1348-.9907v-2.35h.8017v4.5014Z"></path>
  <path class="cls-6" d="M161.2168,89.7227V83.1148h.81v6.6079Z"></path>
  <path class="cls-6" d="M165.3652,83.7091a1.3414,1.3414,0,0,0-.4043-.063.57.57,0,0,0-.5761.36,1.6216,1.6216,0,0,0-.0547.6485v.5669h1.08v.477h-1.08v4.0244h-.8008V85.6983h-.73v-.477h.73v-.4322a1.6732,1.6732,0,0,1,.2334-1.125,1.3595,1.3595,0,0,1,1.7832-.36Z"></path>
  <path class="cls-6" d="M168.7139,89.7227a1.4522,1.4522,0,0,1-.1348-.6753,1.7169,1.7169,0,0,1-1.459.7832,1.2167,1.2167,0,0,1-1.26-1.269,1.493,1.493,0,0,1,.9267-1.3237,6.251,6.251,0,0,1,1.0352-.3872,7.1262,7.1262,0,0,1,.7568-.1709c-.0635-.585-.2793-1.0445-.9727-1.0445a1.7915,1.7915,0,0,0-1.1435.4864l-.3145-.4053a2.25,2.25,0,0,1,1.6026-.603,1.6054,1.6054,0,0,1,1.3594.5673c.1982.2881.2783.4859.2783,1.2964v1.3052a3.109,3.109,0,0,0,.1982,1.44Zm-.1172-2.5117a4.1883,4.1883,0,0,0-.54.1172c-.7382.1621-1.3593.4951-1.3593,1.125a.682.682,0,0,0,.6933.7476,1.1924,1.1924,0,0,0,1.1074-.8374,2.18,2.18,0,0,0,.1075-.7115Z"></path>
  <path class="cls-6" d="M172.1611,89.8306a1.2422,1.2422,0,0,1-1.0625-.5312c-.1621-.252-.1982-.4678-.1982-1.17V85.6983h-.63v-.477h.63V84.1319l.8017-.2607v1.35h1.1788v.477h-1.1788v2.377c0,.9184.1436,1.1884.6387,1.1884a1.2169,1.2169,0,0,0,.6035-.1621l.1983.441A1.7987,1.7987,0,0,1,172.1611,89.8306Z"></path>
  <path class="cls-6" d="M7.9473,107.7764a2.9591,2.9591,0,0,1-1.8008-.5942l.414-.585a2.2529,2.2529,0,0,0,1.3956.5494.9971.9971,0,0,0,1.1162-.99,1.2408,1.2408,0,0,0-.5489-.9814,11.119,11.119,0,0,0-1.1074-.8823,1.8669,1.8669,0,0,1-.9722-1.5127c0-.8819.81-1.521,1.9083-1.521a2.3672,2.3672,0,0,1,1.5668.5669l-.4775.5131a1.6462,1.6462,0,0,0-1.1162-.45.8514.8514,0,0,0-.9541.8282c0,.3154.1348.5405.5312.8642.1436.1172.1978.1621.99.7564.8281.6211,1.0981,1.0713,1.0981,1.7378A1.8277,1.8277,0,0,1,7.9473,107.7764Z"></path>
  <path class="cls-6" d="M14.0405,107.7764a3.1273,3.1273,0,0,1-3.1509-3.331,3.0683,3.0683,0,0,1,3.1871-3.1865,3.0854,3.0854,0,0,1,3.1147,3.1777A3.1245,3.1245,0,0,1,14.0405,107.7764Zm-.0361-5.8877c-1.4585,0-2.1514,1.3233-2.1514,2.629,0,1.3413.7022,2.6289,2.1875,2.6289,1.2964,0,2.1875-1.0538,2.1875-2.6109C16.228,102.942,15.355,101.8887,14.0044,101.8887Z"></path>
  <path class="cls-6" d="M19.1289,110.4371a2.4044,2.4044,0,0,1-1.0229-.2339l.1582-.3564a1.7221,1.7221,0,0,0,.8.1928.8012.8012,0,0,0,.8769-.8125.7482.7482,0,0,0-.5088-.7363,2.15,2.15,0,0,0-.8-.0874v-.3452a1.5158,1.5158,0,0,0,.7539-.2163.7475.7475,0,0,0,.3213-.6485.5553.5553,0,0,0-.62-.59,1.3757,1.3757,0,0,0-.7891.2749l-.1694-.3447a1.999,1.999,0,0,1,1.0581-.3277c.666,0,1.11.3741,1.11.9351a1.1318,1.1318,0,0,1-.76,1.0112c.666.14,1.0166.5142,1.0166,1.0576A1.3076,1.3076,0,0,1,19.1289,110.4371Z"></path>
  <path class="cls-6" d="M21.2363,103.6163v-.31c1.1455-1.1865,1.14-1.1865,1.461-1.5488.4614-.52.6367-.8418.6367-1.169a.6612.6612,0,0,0-.6777-.707,1.2545,1.2545,0,0,0-.8765.4209l-.2808-.2573a1.5692,1.5692,0,0,1,1.2451-.59,1.0792,1.0792,0,0,1,1.2037,1.0639c0,.5318-.2164.853-1.3267,1.9986-.4092.4209-.5083.5317-.6133.6484h1.9634v.45Z"></path>
  <path class="cls-6" d="M24.5356,102.3306v-.4033h2.9571v.4033Z"></path>
  <path class="cls-6" d="M152.5139,107.775a2.96,2.96,0,0,1-1.8006-.5941l.4142-.5852a2.2524,2.2524,0,0,0,1.3954.5492.9971.9971,0,0,0,1.1163-.99,1.2405,1.2405,0,0,0-.5491-.9813,11.1836,11.1836,0,0,0-1.1074-.8823,1.8668,1.8668,0,0,1-.9723-1.5125c0-.8822.81-1.5214,1.9086-1.5214a2.3662,2.3662,0,0,1,1.5665.5672l-.4772.5131a1.6469,1.6469,0,0,0-1.1163-.45.8517.8517,0,0,0-.9543.8282c0,.3151.1351.54.5312.8643.144.117.198.162.99.7562.8282.6212,1.0983,1.0713,1.0983,1.7375A1.828,1.828,0,0,1,152.5139,107.775Zm6.3454-.108V107.1a2.0631,2.0631,0,0,1-1.5574.6752,1.3788,1.3788,0,0,1-1.44-.9,3.52,3.52,0,0,1-.108-1.1884v-2.5207h.81v2.5207a1.9331,1.9331,0,0,0,.1621,1.0263.9334.9334,0,0,0,.8913.4682,1.1429,1.1429,0,0,0,1.1073-.6752,2.2,2.2,0,0,0,.135-.99v-2.35h.8013v4.5013Zm2.3572,0v-6.608h.81v6.608Zm4.1494-6.0138a1.3482,1.3482,0,0,0-.4051-.063.5706.5706,0,0,0-.5762.36,1.64,1.64,0,0,0-.054.6482v.5672h1.08v.4771h-1.08v4.0242h-.8012v-4.0242H162.8v-.4771h.7292v-.4322a1.67,1.67,0,0,1,.2341-1.1253,1.3585,1.3585,0,0,1,1.7825-.36Zm1.1524.6032a.5095.5095,0,0,1-.5132-.4952.4851.4851,0,0,1,.5222-.5311.5.5,0,0,1,.5041.5131A.5188.5188,0,0,1,166.5183,102.2564Zm-.4051,5.4106v-4.5013h.81v4.5013Zm3.6086.108a1.2417,1.2417,0,0,1-1.0623-.5311c-.1621-.2521-.1981-.4682-.1981-1.17v-2.4307h-.63v-.4771h.63v-1.0894l.8012-.261v1.35h1.1794v.4771h-1.1794V106.02c0,.9183.1441,1.1884.6392,1.1884a1.2123,1.2123,0,0,0,.6032-.1621l.1981.4412A1.8007,1.8007,0,0,1,169.7218,107.775Z"></path>
  <path class="cls-6" d="M10.8818,125.6134l-3.7451-4.9063v4.9063H6.4258v-6.3018h.5581l3.79,4.9336v-4.9336h.72v6.3018Z"></path>
  <path class="cls-6" d="M15.8223,125.7218a3.1274,3.1274,0,0,1-3.1509-3.3311,3.151,3.151,0,1,1,6.3017-.01A3.1249,3.1249,0,0,1,15.8223,125.7218Zm-.0362-5.8877c-1.458,0-2.1513,1.3232-2.1513,2.6279,0,1.3418.7021,2.6289,2.1875,2.6289,1.2964,0,2.1875-1.0527,2.1875-2.61C18.01,120.8868,17.1367,119.8341,15.7861,119.8341Z"></path>
  <path class="cls-6" d="M20.9019,128.3819a2.3977,2.3977,0,0,1-1.023-.2344l.1582-.3564a1.7171,1.7171,0,0,0,.8.1934.801.801,0,0,0,.877-.8125.7486.7486,0,0,0-.5088-.7364,2.1481,2.1481,0,0,0-.8-.0879v-.3447a1.5258,1.5258,0,0,0,.7539-.2158.7485.7485,0,0,0,.3213-.6494.5551.5551,0,0,0-.62-.59,1.3785,1.3785,0,0,0-.789.2744l-.1695-.3447a2.0017,2.0017,0,0,1,1.0581-.3271c.6661,0,1.11.374,1.11.9355a1.133,1.133,0,0,1-.76,1.0108c.6661.1406,1.0166.5146,1.0166,1.0576A1.3074,1.3074,0,0,1,20.9019,128.3819Z"></path>
  <path class="cls-6" d="M22.9507,120.2745v-.4024h2.957v.4024Z"></path>
  <path class="cls-6" d="M155.4492,125.6114l-3.7456-4.9062v4.9062h-.7109V119.31h.5581l3.79,4.9336V119.31h.7207v6.3018Z"></path>
  <path class="cls-6" d="M157.8867,120.2012a.5091.5091,0,0,1-.5127-.4951.4888.4888,0,0,1,.5215-.5312.5.5,0,0,1,.5049.5127A.5194.5194,0,0,1,157.8867,120.2012Zm-.4053,5.41V121.11h.8106v4.501Z"></path>
  <path class="cls-6" d="M161.0908,125.72a1.2434,1.2434,0,0,1-1.0625-.5312c-.1621-.252-.1982-.4688-.1982-1.1709V121.587h-.63V121.11h.63v-1.09l.8017-.2608V121.11h1.1787v.4766h-1.1787v2.3769c0,.918.1436,1.1885.6387,1.1885a1.2116,1.2116,0,0,0,.6035-.1621l.1983.4414A1.8064,1.8064,0,0,1,161.0908,125.72Z"></path>
  <path class="cls-6" d="M164.9336,122.0011a1.4786,1.4786,0,0,0-.6025-.2247.6991.6991,0,0,0-.6309.5577,3.6658,3.6658,0,0,0-.1162,1.1435v2.1338h-.8106V121.11h.8106v.63l.1885-.2881a.906.906,0,0,1,.7382-.45,1.1509,1.1509,0,0,1,.8106.45Z"></path>
  <path class="cls-6" d="M168.3535,125.6114a1.4532,1.4532,0,0,1-.1347-.6748,1.7193,1.7193,0,0,1-1.459.7832,1.2174,1.2174,0,0,1-1.26-1.27,1.4922,1.4922,0,0,1,.9268-1.3233,6.2254,6.2254,0,0,1,1.0351-.3877,7.0494,7.0494,0,0,1,.7569-.1709c-.0635-.5849-.2793-1.0439-.9727-1.0439a1.7921,1.7921,0,0,0-1.1436.4863l-.3144-.4053a2.2512,2.2512,0,0,1,1.6025-.6035,1.604,1.604,0,0,1,1.3594.5674c.1982.2881.2793.4863.2793,1.2959v1.3057a3.1092,3.1092,0,0,0,.1973,1.44Zm-.1172-2.5117a4.2736,4.2736,0,0,0-.54.1172c-.7383.1621-1.3594.4951-1.3594,1.125a.6818.6818,0,0,0,.6934.747,1.1925,1.1925,0,0,0,1.1074-.8369,2.1741,2.1741,0,0,0,.1074-.7109Z"></path>
  <path class="cls-6" d="M171.8008,125.72a1.2421,1.2421,0,0,1-1.0625-.5312c-.1621-.252-.1983-.4688-.1983-1.1709V121.587h-.63V121.11h.63v-1.09l.8018-.2608V121.11h1.1787v.4766h-1.1787v2.3769c0,.918.1436,1.1885.6387,1.1885a1.2119,1.2119,0,0,0,.6035-.1621l.1982.4414A1.8063,1.8063,0,0,1,171.8008,125.72Z"></path>
  <path class="cls-6" d="M10.8818,143.5577l-3.7451-4.9063v4.9063H6.4258v-6.3018h.5581l3.79,4.9336v-4.9336h.72v6.3018Z"></path>
  <path class="cls-6" d="M15.8223,143.6661a3.1274,3.1274,0,0,1-3.1509-3.3311,3.151,3.151,0,1,1,6.3017-.01A3.1248,3.1248,0,0,1,15.8223,143.6661Zm-.0362-5.8877c-1.458,0-2.1513,1.3232-2.1513,2.6279,0,1.3418.7021,2.6289,2.1875,2.6289,1.2964,0,2.1875-1.0527,2.1875-2.61C18.01,138.8311,17.1367,137.7784,15.7861,137.7784Z"></path>
  <path class="cls-6" d="M19.6514,146.2559v-.3095c1.1455-1.1866,1.14-1.1866,1.4609-1.5489.4614-.52.6367-.8418.6367-1.1689a.6612.6612,0,0,0-.6777-.707,1.2565,1.2565,0,0,0-.8765.4209l-.2807-.2569a1.57,1.57,0,0,1,1.2451-.5908,1.0792,1.0792,0,0,1,1.2036,1.0635c0,.5322-.2163.8535-1.3267,1.999-.4091.4209-.5083.5322-.6132.6484h1.9633v.45Z"></path>
  <path class="cls-6" d="M22.9507,138.2188v-.4023h2.957v.4023Z"></path>
  <path class="cls-6" d="M155.4492,143.5557l-3.7456-4.9062v4.9062h-.7109V137.254h.5581l3.79,4.9336V137.254h.7207v6.3017Z"></path>
  <path class="cls-6" d="M157.8867,138.1456a.5094.5094,0,0,1-.5127-.4961.4886.4886,0,0,1,.5215-.53.5.5,0,0,1,.5049.5127A.52.52,0,0,1,157.8867,138.1456Zm-.4053,5.41v-4.5009h.8106v4.5009Z"></path>
  <path class="cls-6" d="M161.0908,143.6641a1.2434,1.2434,0,0,1-1.0625-.5312c-.1621-.252-.1982-.4688-.1982-1.1709v-2.4307h-.63v-.4765h.63v-1.09l.8017-.2607v1.3506h1.1787v.4765h-1.1787v2.377c0,.9179.1436,1.1885.6387,1.1885a1.2118,1.2118,0,0,0,.6035-.1622l.1983.4415A1.8071,1.8071,0,0,1,161.0908,143.6641Z"></path>
  <path class="cls-6" d="M164.9336,139.9454a1.4782,1.4782,0,0,0-.6025-.2246.699.699,0,0,0-.6309.5576,3.67,3.67,0,0,0-.1162,1.1436v2.1337h-.8106v-4.5009h.8106v.63l.1885-.288a.9058.9058,0,0,1,.7382-.45,1.1505,1.1505,0,0,1,.8106.45Z"></path>
  <path class="cls-6" d="M166.3369,138.1456a.5094.5094,0,0,1-.5127-.4961.4886.4886,0,0,1,.5215-.53.4992.4992,0,0,1,.5039.5127A.5186.5186,0,0,1,166.3369,138.1456Zm-.4053,5.41v-4.5009h.8106v4.5009Z"></path>
  <path class="cls-6" d="M169.542,143.6641a1.2434,1.2434,0,0,1-1.0625-.5312c-.1621-.252-.1982-.4688-.1982-1.1709v-2.4307h-.63v-.4765h.63v-1.09l.8017-.2607v1.3506h1.1787v.4765H169.083v2.377c0,.9179.1436,1.1885.6387,1.1885a1.2118,1.2118,0,0,0,.6035-.1622l.1982.4415A1.807,1.807,0,0,1,169.542,143.6641Z"></path>
  <path class="cls-6" d="M10.8818,161.502l-3.7451-4.9062v4.9062H6.4258V155.2h.5581l3.79,4.9336V155.2h.72v6.3017Z"></path>
  <path class="cls-6" d="M16.9121,161.502v-3.124H13.8779v3.124h-.873V155.2h.873V157.73h3.0342V155.2h.8731v6.3017Z"></path>
  <path class="cls-6" d="M21.0083,163.0313V164.2h-.4971v-1.169H18.688v-.2627l2.0161-2.6591h.3042v2.5126h.5259v.4092Zm-.4971-2.1035c-.3506.5371-.5376.8125-1.2036,1.6943h1.2036Z"></path>
  <path class="cls-6" d="M23.7642,156.1632v1.2861h-.3975v-1.2861h-1.28v-.4024h1.28v-1.2744h.3975v1.2744h1.28v.4024Z"></path>
  <path class="cls-6" d="M154.8008,161.5011l-.6392-1.8458h-2.458l-.6841,1.8458h-.7832l2.584-6.3018h.5762l2.3584,6.3018Zm-1.8189-5.1856-1.0439,2.71h2.0073Z"></path>
  <path class="cls-6" d="M162.3525,161.5011v-2.62a1.7085,1.7085,0,0,0-.207-1.0351.91.91,0,0,0-.7744-.36,1.0615,1.0615,0,0,0-.9815.5313,2.0214,2.0214,0,0,0-.1445.9814v2.503h-.81v-2.62a1.8308,1.8308,0,0,0-.1806-.9716.8779.8779,0,0,0-.8008-.4239,1.067,1.067,0,0,0-.9814.5586,1.9747,1.9747,0,0,0-.1348.9v2.5567h-.8106V157h.8106v.5664a1.8445,1.8445,0,0,1,1.44-.6748,1.5231,1.5231,0,0,1,1.3408.6748,2.3205,2.3205,0,0,1,1.5762-.6748,1.35,1.35,0,0,1,1.3047.7744,2.3527,2.3527,0,0,1,.1533,1.1885v2.6465Z"></path>
  <path class="cls-6" d="M170.48,161.5011v-2.62a1.7093,1.7093,0,0,0-.207-1.0351.91.91,0,0,0-.7745-.36,1.0613,1.0613,0,0,0-.9814.5313,2.02,2.02,0,0,0-.1445.9814v2.503h-.81v-2.62a1.8307,1.8307,0,0,0-.1807-.9716.8779.8779,0,0,0-.8007-.4239,1.0672,1.0672,0,0,0-.9815.5586,1.976,1.976,0,0,0-.1348.9v2.5567h-.81V157h.81v.5664a1.8448,1.8448,0,0,1,1.4405-.6748,1.5232,1.5232,0,0,1,1.3408.6748,2.3205,2.3205,0,0,1,1.5762-.6748,1.35,1.35,0,0,1,1.3047.7744,2.3527,2.3527,0,0,1,.1533,1.1885v2.6465Z"></path>
  <path class="cls-6" d="M174.627,161.61a2.2094,2.2094,0,0,1-2.2149-2.3858,2.1824,2.1824,0,0,1,2.2324-2.332,2.3656,2.3656,0,0,1-.0175,4.7178Zm-.0274-4.15c-.81,0-1.3232.6748-1.3232,1.7646,0,1.1524.4951,1.8184,1.3593,1.8184.8282,0,1.3233-.6846,1.3233-1.8282C175.959,158.1251,175.4463,157.4591,174.6,157.4591Z"></path>
  <path class="cls-6" d="M181.1348,161.5011v-2.5206a1.9357,1.9357,0,0,0-.1621-1.0263.9347.9347,0,0,0-.8916-.4688,1.1607,1.1607,0,0,0-1.1163.667,2.227,2.227,0,0,0-.1259.9805v2.3682h-.8106V157h.8106v.5664a2.0506,2.0506,0,0,1,1.5576-.6748,1.3765,1.3765,0,0,1,1.4306.9,3.3918,3.3918,0,0,1,.1084,1.1884v2.5206Z"></path>
  <path class="cls-6" d="M183.7344,156.0909a.5094.5094,0,0,1-.5127-.4961.4886.4886,0,0,1,.5215-.53.5.5,0,0,1,.5048.5127A.5194.5194,0,0,1,183.7344,156.0909Zm-.4053,5.41V157h.81v4.501Z"></path>
  <path class="cls-6" d="M188.64,161.5011v-.5674a2.0614,2.0614,0,0,1-1.5576.6758,1.38,1.38,0,0,1-1.44-.9,3.5352,3.5352,0,0,1-.1074-1.1885V157h.81v2.52a1.9351,1.9351,0,0,0,.1621,1.0264.9357.9357,0,0,0,.8916.4677,1.1441,1.1441,0,0,0,1.1074-.6748,2.2076,2.2076,0,0,0,.1347-.99V157h.8018v4.501Z"></path>
  <path class="cls-6" d="M196.8311,161.5011v-2.62a1.7084,1.7084,0,0,0-.2071-1.0351.91.91,0,0,0-.7744-.36,1.0613,1.0613,0,0,0-.9814.5313,2.02,2.02,0,0,0-.1446.9814v2.503h-.81v-2.62a1.8307,1.8307,0,0,0-.1807-.9716.8779.8779,0,0,0-.8008-.4239,1.0671,1.0671,0,0,0-.9814.5586,1.9747,1.9747,0,0,0-.1348.9v2.5567h-.81V157h.81v.5664a1.8446,1.8446,0,0,1,1.44-.6748,1.5234,1.5234,0,0,1,1.3409.6748,2.32,2.32,0,0,1,1.5761-.6748,1.35,1.35,0,0,1,1.3047.7744,2.3515,2.3515,0,0,1,.1533,1.1885v2.6465Z"></path>
  <path class="cls-6" d="M10.333,179.4464v-3.1241H7.2988v3.1241h-.873v-6.3018h.873v2.5293H10.333v-2.5293h.8731v6.3018Z"></path>
  <path class="cls-6" d="M12.2085,182.1456v-.31c1.145-1.1865,1.14-1.1865,1.4609-1.5488.4615-.5205.6368-.8418.6368-1.169a.6612.6612,0,0,0-.6778-.707,1.2563,1.2563,0,0,0-.8764.4209l-.2808-.2568a1.57,1.57,0,0,1,1.2451-.5908,1.0791,1.0791,0,0,1,1.2036,1.0634c0,.5323-.2163.8535-1.3266,1.9991-.4092.4208-.5083.5322-.6138.6484h1.9639v.45Z"></path>
  <path class="cls-6" d="M17.3706,176.9786v-.5674a1.7994,1.7994,0,0,0,.9815-.2607,1.32,1.32,0,0,0,.5219-1.1436,1.1151,1.1151,0,0,0-.5669-1.08,2.0263,2.0263,0,0,0-.9633-.1533h-.4053v5.6719h-.8731v-6.3018h1.2964a2.8105,2.8105,0,0,1,1.6836.3155,1.63,1.63,0,0,1,.7559,1.4306A2.1834,2.1834,0,0,1,17.3706,176.9786Z"></path>
  <path class="cls-6" d="M23.7158,179.5538a3.1274,3.1274,0,0,1-3.1509-3.3311,3.1511,3.1511,0,1,1,6.3018-.01A3.1248,3.1248,0,0,1,23.7158,179.5538Zm-.0361-5.8877c-1.458,0-2.1514,1.3232-2.1514,2.6279,0,1.3418.7022,2.6289,2.1875,2.6289,1.2964,0,2.1875-1.0527,2.1875-2.61C25.9033,174.7188,25.03,173.6661,23.68,173.6661Z"></path>
  <path class="cls-6" d="M29.7749,180.9766v1.169h-.4971v-1.169H27.4546v-.2627l2.0161-2.6591h.3042v2.5127h.5259v.4091Zm-.4971-2.1035c-.3506.5371-.5376.8125-1.2036,1.6944h1.2036Z"></path>
  <path class="cls-6" d="M30.8535,174.1085v-.4024h2.957v.4024Z"></path>
  <path class="cls-6" d="M154.7915,179.04a4.6851,4.6851,0,0,1-2.2773.4053h-1.5215v-6.3018h1.5844a4.0846,4.0846,0,0,1,2.8.6387,2.7867,2.7867,0,0,1,1.0625,2.3408A3.0627,3.0627,0,0,1,154.7915,179.04Zm-.4409-5.0146a3.8243,3.8243,0,0,0-1.7915-.252h-.6934v5.042h.6485a3.004,3.004,0,0,0,2.1245-.5049,2.5663,2.5663,0,0,0,.8467-2.1152A2.1517,2.1517,0,0,0,154.3506,174.0255Z"></path>
  <path class="cls-6" d="M157.94,174.0352a.5092.5092,0,0,1-.5127-.4951.4888.4888,0,0,1,.5215-.5312.4992.4992,0,0,1,.5039.5127A.5185.5185,0,0,1,157.94,174.0352Zm-.4052,5.41v-4.501h.81v4.501Z"></path>
  <path class="cls-6" d="M162.7842,179.4454v-2.52a1.9336,1.9336,0,0,0-.1621-1.0264.9338.9338,0,0,0-.8916-.4687,1.1622,1.1622,0,0,0-1.1162.667,2.24,2.24,0,0,0-.126.98v2.3682h-.8106V172.837h.8106v2.6738a2.0638,2.0638,0,0,1,1.5576-.6748,1.3665,1.3665,0,0,1,1.4307.9,3.395,3.395,0,0,1,.1084,1.1885v2.52Z"></path>
  <path class="cls-6" d="M166.2744,180.1114a3.13,3.13,0,0,1-.7832,1.2158,1.8424,1.8424,0,0,1-1.2422.3692H164.06v-.6036h.1982a1.0718,1.0718,0,0,0,1.1436-.5937c.1084-.1807.3242-.64.63-1.3057l-1.8272-4.1054.792-.2159,1.3867,3.4844,1.4766-3.4844.666.1622Z"></path>
  <path class="cls-6" d="M172.62,179.4454v-.7022a1.9243,1.9243,0,0,1-1.5752.8106,2.1183,2.1183,0,0,1-2.0254-2.35,2.2054,2.2054,0,0,1,2.169-2.3682,1.6393,1.6393,0,0,1,1.4316.6748V172.837h.7744v6.6084Zm-1.3857-4.042c-.8291,0-1.3506.6484-1.3506,1.7012,0,1.1435.5312,1.8818,1.3408,1.8818.8379,0,1.4043-.7568,1.4043-1.873C172.6289,176.0782,172.08,175.4034,171.2344,175.4034Z"></path>
  <path class="cls-6" d="M176.9756,175.835a1.48,1.48,0,0,0-.6026-.2246.6989.6989,0,0,0-.6308.5576,3.6588,3.6588,0,0,0-.1172,1.1436v2.1338h-.81v-4.501h.81v.63l.19-.2881a.906.906,0,0,1,.7382-.45,1.1509,1.1509,0,0,1,.8106.45Z"></path>
  <path class="cls-6" d="M179.8105,179.5538a2.2094,2.2094,0,0,1-2.2148-2.3858,2.1824,2.1824,0,0,1,2.2324-2.332,2.3656,2.3656,0,0,1-.0176,4.7178Zm-.0273-4.15c-.81,0-1.3232.6748-1.3232,1.7646,0,1.1524.4951,1.8184,1.3593,1.8184.8282,0,1.3233-.6846,1.3233-1.8281C181.1426,176.0694,180.63,175.4034,179.7832,175.4034Z"></path>
  <path class="cls-6" d="M187.0918,179.9854a2.1036,2.1036,0,0,1-2.2861,1.711,3.4826,3.4826,0,0,1-1.81-.459l.2158-.5313a2.9467,2.9467,0,0,0,1.5215.4229,1.3992,1.3992,0,0,0,1.4941-.8731,3.22,3.22,0,0,0,.1446-1.1972v-.3242a1.8033,1.8033,0,0,1-1.53.8193,2.0952,2.0952,0,0,1-2.0527-2.3233,2.2412,2.2412,0,0,1,2.1787-2.3945,1.5688,1.5688,0,0,1,1.4043.72v-.6113h.8008v3.79A4.62,4.62,0,0,1,187.0918,179.9854Zm-2.124-4.582c-.8106,0-1.3145.6387-1.3145,1.7012,0,1.1347.54,1.8818,1.3321,1.8818.8193,0,1.3867-.7656,1.3867-1.873C186.3721,176.0606,185.8408,175.4034,184.9678,175.4034Z"></path>
  <path class="cls-6" d="M191.7539,177.2491H189.09a1.5788,1.5788,0,0,0,1.5479,1.7373,2.1545,2.1545,0,0,0,1.18-.3877l.2334.4326a2.6827,2.6827,0,0,1-1.5928.5225,2.1371,2.1371,0,0,1-1.5664-.6211,2.5353,2.5353,0,0,1-.6572-1.8008,2.3991,2.3991,0,0,1,.5849-1.6474,2.02,2.02,0,0,1,1.5215-.6485,1.5616,1.5616,0,0,1,1.63,1.1162,4.4047,4.4047,0,0,1,.1709,1.2969Zm-.4053-.748c-.0625-.6661-.3955-1.0977-1.0166-1.0977-.6845,0-1.1523.5039-1.2158,1.332h2.2422A1.805,1.805,0,0,0,191.3486,176.5011Z"></path>
  <path class="cls-6" d="M196.3535,179.4454v-2.52a1.9326,1.9326,0,0,0-.1621-1.0264.9347.9347,0,0,0-.8916-.4687,1.16,1.16,0,0,0-1.1162.667,2.2261,2.2261,0,0,0-.126.98v2.3682h-.8105v-4.501h.8105v.5664a2.0506,2.0506,0,0,1,1.5576-.6748,1.3766,1.3766,0,0,1,1.4307.9,3.395,3.395,0,0,1,.1084,1.1885v2.52Z"></path>
  <path class="cls-6" d="M200.8525,179.5538a1.71,1.71,0,0,1-1.4316-.7119v2.8545h-.7832v-6.752h.7832v.6836a1.873,1.873,0,0,1,1.5937-.792,2.0372,2.0372,0,0,1,2.0079,2.26A2.2557,2.2557,0,0,1,200.8525,179.5538Zm-.0273-4.15c-.8457,0-1.4043.7285-1.4043,1.8545,0,1.0713.5312,1.7285,1.4229,1.7285.98,0,1.3144-1.0176,1.3144-1.8545C202.1582,176.0606,201.6445,175.4034,200.8252,175.4034Z"></path>
  <path class="cls-6" d="M207.207,179.4454v-2.52a1.9326,1.9326,0,0,0-.1621-1.0264.9337.9337,0,0,0-.8916-.4687,1.1623,1.1623,0,0,0-1.1162.667,2.2414,2.2414,0,0,0-.126.98v2.3682h-.8105V172.837h.8105v2.6738a2.0638,2.0638,0,0,1,1.5577-.6748,1.3685,1.3685,0,0,1,1.4316.9,3.4293,3.4293,0,0,1,.1074,1.1885v2.52Z"></path>
  <path class="cls-6" d="M211.3018,179.5538a2.2094,2.2094,0,0,1-2.2149-2.3858,2.1824,2.1824,0,0,1,2.2324-2.332,2.3656,2.3656,0,0,1-.0175,4.7178Zm-.0274-4.15c-.81,0-1.3232.6748-1.3232,1.7646,0,1.1524.4951,1.8184,1.3593,1.8184.8282,0,1.3233-.6846,1.3233-1.8281C212.6338,176.0694,212.1211,175.4034,211.2744,175.4034Z"></path>
  <path class="cls-6" d="M215.6758,179.5538a1.9553,1.9553,0,0,1-1.4317-.5762l.3965-.45a1.3151,1.3151,0,0,0,.9629.459c.459,0,.7559-.2519.7559-.6572,0-.3418-.1172-.4951-.7559-.9541-.4775-.3428-1.0713-.7119-1.0713-1.3594a1.2922,1.2922,0,0,1,1.4219-1.18,1.8627,1.8627,0,0,1,1.1709.4053l-.3242.414a1.3164,1.3164,0,0,0-.8194-.288c-.3867,0-.666.207-.666.5039,0,.2343.126.3965.54.6933,1.0986.792,1.3418,1.08,1.3418,1.6748A1.3647,1.3647,0,0,1,215.6758,179.5538Z"></path>
  <path class="cls-6" d="M220.6348,179.5538a1.71,1.71,0,0,1-1.4317-.7119v2.8545H218.42v-6.752h.7832v.6836a1.8731,1.8731,0,0,1,1.5938-.792,2.0372,2.0372,0,0,1,2.0078,2.26A2.2557,2.2557,0,0,1,220.6348,179.5538Zm-.0274-4.15c-.8457,0-1.4043.7285-1.4043,1.8545,0,1.0713.5313,1.7285,1.4229,1.7285.98,0,1.3144-1.0176,1.3144-1.8545C221.94,176.0606,221.4268,175.4034,220.6074,175.4034Z"></path>
  <path class="cls-6" d="M226.9893,179.4454v-2.52a1.9323,1.9323,0,0,0-.1622-1.0264.9336.9336,0,0,0-.8916-.4687,1.1624,1.1624,0,0,0-1.1162.667,2.2418,2.2418,0,0,0-.1259.98v2.3682h-.8106V172.837h.8106v2.6738a2.0636,2.0636,0,0,1,1.5576-.6748,1.3663,1.3663,0,0,1,1.4306.9,3.3925,3.3925,0,0,1,.1084,1.1885v2.52Z"></path>
  <path class="cls-6" d="M231.668,179.4454a1.4531,1.4531,0,0,1-.1348-.6748,1.7193,1.7193,0,0,1-1.459.7832,1.2174,1.2174,0,0,1-1.26-1.2695,1.4921,1.4921,0,0,1,.9267-1.3233,6.2265,6.2265,0,0,1,1.0352-.3877,7.029,7.029,0,0,1,.7568-.1709c-.0635-.5849-.2793-1.0439-.9727-1.0439a1.7918,1.7918,0,0,0-1.1435.4863l-.3145-.4053a2.2512,2.2512,0,0,1,1.6026-.6035,1.6041,1.6041,0,0,1,1.3594.5674c.1982.2881.2793.4863.2793,1.2959v1.3057a3.11,3.11,0,0,0,.1972,1.44Zm-.1172-2.5117a4.2571,4.2571,0,0,0-.54.1172c-.7382.1621-1.3593.4951-1.3593,1.125a.6818.6818,0,0,0,.6933.747,1.1925,1.1925,0,0,0,1.1074-.8369,2.1738,2.1738,0,0,0,.1075-.7109Z"></path>
  <path class="cls-6" d="M235.1152,179.5538a1.2423,1.2423,0,0,1-1.0625-.5313c-.1621-.2519-.1982-.4687-.1982-1.1709V175.421h-.63v-.4766h.63v-1.09l.8018-.2608v1.3506h1.1787v.4766h-1.1787v2.3769c0,.918.1435,1.1885.6386,1.1885a1.2116,1.2116,0,0,0,.6035-.1621l.1983.4414A1.8064,1.8064,0,0,1,235.1152,179.5538Z"></path>
  <path class="cls-6" d="M10.333,197.3907v-3.124H7.2988v3.124h-.873v-6.3018h.873v2.5293H10.333v-2.5293h.8731v6.3018Z"></path>
  <path class="cls-6" d="M14.0127,194.9239v-.5674a1.7982,1.7982,0,0,0,.9814-.2607,1.3209,1.3209,0,0,0,.522-1.1436,1.1151,1.1151,0,0,0-.5669-1.08,2.0268,2.0268,0,0,0-.9634-.1533h-.4052v5.6719h-.8731v-6.3018h1.2964a2.8105,2.8105,0,0,1,1.6836.3155,1.63,1.63,0,0,1,.7559,1.4306A2.1834,2.1834,0,0,1,14.0127,194.9239Z"></path>
  <path class="cls-6" d="M20.3584,197.4991a3.1274,3.1274,0,0,1-3.1509-3.3311,3.1511,3.1511,0,1,1,6.3018-.01A3.1248,3.1248,0,0,1,20.3584,197.4991Zm-.0361-5.8877c-1.458,0-2.1514,1.3232-2.1514,2.6279,0,1.3418.7021,2.6289,2.1875,2.6289,1.2964,0,2.1875-1.0527,2.1875-2.61C22.5459,192.6641,21.6729,191.6114,20.3223,191.6114Z"></path>
  <path class="cls-6" d="M26.417,198.921V200.09H25.92V198.921H24.0967v-.2627l2.0161-2.6592h.3042v2.5127h.5259v.4092Zm-.4971-2.1035c-.3506.5371-.5376.8125-1.2036,1.6943H25.92Z"></path>
  <path class="cls-6" d="M27.5542,193.3389v-.3095c1.145-1.1866,1.14-1.1866,1.4609-1.5489.4615-.52.6368-.8418.6368-1.1689a.6612.6612,0,0,0-.6778-.707,1.2563,1.2563,0,0,0-.8764.4209l-.2808-.2569a1.57,1.57,0,0,1,1.2451-.5908,1.0791,1.0791,0,0,1,1.2036,1.0635c0,.5322-.2163.8535-1.3266,1.999-.4092.4209-.5083.5322-.6138.6484h1.9639v.45Z"></path>
  <path class="cls-6" d="M30.8535,192.0528v-.4023h2.957v.4023Z"></path>
  <path class="cls-6" d="M154.9,197.39v-3.124h-3.0342v3.124h-.873V191.088h.873v2.5293H154.9V191.088h.8735V197.39Z"></path>
  <path class="cls-6" d="M158.7061,198.0557a3.1308,3.1308,0,0,1-.7832,1.2159,1.8431,1.8431,0,0,1-1.2422.3691h-.19v-.6035h.1983a1.0718,1.0718,0,0,0,1.1435-.5938c.1084-.1806.3242-.64.63-1.3056l-1.8272-4.1055.792-.2158,1.3868,3.4844,1.4765-3.4844.666.1621Z"></path>
  <path class="cls-6" d="M165.0508,197.39v-.7021a1.9269,1.9269,0,0,1-1.5752.81,2.1183,2.1183,0,0,1-2.0254-2.35,2.2054,2.2054,0,0,1,2.1689-2.3682,1.6392,1.6392,0,0,1,1.4317.6749v-2.6739h.7744V197.39Zm-1.3858-4.042c-.8291,0-1.35.6485-1.35,1.7012,0,1.1436.5312,1.8818,1.3408,1.8818.8379,0,1.4043-.7568,1.4043-1.873C165.06,194.0225,164.5107,193.3477,163.665,193.3477Z"></path>
  <path class="cls-6" d="M169.4072,193.7794a1.4772,1.4772,0,0,0-.6025-.2246.699.699,0,0,0-.6309.5576,3.665,3.665,0,0,0-.1172,1.1435V197.39h-.81v-4.501h.81v.63l.19-.2881a.906.906,0,0,1,.7383-.45,1.1509,1.1509,0,0,1,.8105.45Z"></path>
  <path class="cls-6" d="M172.2334,197.4981a2.2093,2.2093,0,0,1-2.2148-2.3857,2.1824,2.1824,0,0,1,2.2324-2.3321,2.3656,2.3656,0,0,1-.0176,4.7178Zm-.0273-4.15c-.81,0-1.3233.6748-1.3233,1.7647,0,1.1523.4951,1.8183,1.3594,1.8183.8281,0,1.3232-.6845,1.3232-1.8281C173.5654,194.0137,173.0527,193.3477,172.2061,193.3477Z"></path>
  <path class="cls-6" d="M179.5146,197.93a2.1035,2.1035,0,0,1-2.2861,1.7109,3.4826,3.4826,0,0,1-1.81-.459l.2159-.5312a2.9473,2.9473,0,0,0,1.5215.4228,1.3992,1.3992,0,0,0,1.4941-.873,3.2208,3.2208,0,0,0,.1445-1.1973v-.3242a1.8032,1.8032,0,0,1-1.53.8193,2.0952,2.0952,0,0,1-2.0527-2.3232,2.2419,2.2419,0,0,1,2.1787-2.3946,1.5664,1.5664,0,0,1,1.4043.7208v-.6124h.8008v3.79A4.6206,4.6206,0,0,1,179.5146,197.93Zm-2.124-4.5821c-.8105,0-1.3144.6387-1.3144,1.7012,0,1.1348.54,1.8818,1.332,1.8818.8193,0,1.3867-.7656,1.3867-1.873C178.7949,194.005,178.2637,193.3477,177.3906,193.3477Z"></path>
  <path class="cls-6" d="M184.167,195.1934h-2.6641a1.5787,1.5787,0,0,0,1.5479,1.7373,2.154,2.154,0,0,0,1.18-.3877l.2343.4327a2.6869,2.6869,0,0,1-1.5937.5224,2.1369,2.1369,0,0,1-1.5664-.6211,2.5353,2.5353,0,0,1-.6572-1.8008,2.4,2.4,0,0,1,.5849-1.6474,2.02,2.02,0,0,1,1.5215-.6485,1.5616,1.5616,0,0,1,1.63,1.1163,4.4034,4.4034,0,0,1,.1709,1.2968Zm-.4053-.748c-.0625-.666-.3955-1.0977-1.0166-1.0977-.6846,0-1.1523.5039-1.2158,1.3321h2.2422A1.8065,1.8065,0,0,0,183.7617,194.4454Z"></path>
  <path class="cls-6" d="M188.7656,197.39v-2.52a1.9376,1.9376,0,0,0-.1611-1.0264.9347.9347,0,0,0-.8916-.4687,1.1605,1.1605,0,0,0-1.1162.667,2.2263,2.2263,0,0,0-.126.9805V197.39h-.81v-4.501h.81v.5665a2.0507,2.0507,0,0,1,1.5576-.6749,1.3768,1.3768,0,0,1,1.4307.9,3.3954,3.3954,0,0,1,.1084,1.1885v2.52Z"></path>
  <path class="cls-6" d="M193.2656,197.4981a1.7094,1.7094,0,0,1-1.4316-.7119v2.8545h-.7832v-6.752h.7832v.6836a1.8732,1.8732,0,0,1,1.5937-.792,2.0371,2.0371,0,0,1,2.0078,2.26A2.2556,2.2556,0,0,1,193.2656,197.4981Zm-.0273-4.15c-.8457,0-1.4043.73-1.4043,1.8545,0,1.0713.5312,1.7285,1.4228,1.7285.9805,0,1.3145-1.0175,1.3145-1.8545C194.5713,194.005,194.0576,193.3477,193.2383,193.3477Z"></path>
  <path class="cls-6" d="M199.62,197.39v-2.52a1.9351,1.9351,0,0,0-.1621-1.0264.9337.9337,0,0,0-.8916-.4687,1.1624,1.1624,0,0,0-1.1162.667,2.2417,2.2417,0,0,0-.126.9805V197.39h-.81v-6.6084h.81v2.6739a2.0639,2.0639,0,0,1,1.5576-.6749,1.3666,1.3666,0,0,1,1.4307.9,3.3954,3.3954,0,0,1,.1084,1.1885v2.52Z"></path>
  <path class="cls-6" d="M203.7148,197.4981a2.2093,2.2093,0,0,1-2.2148-2.3857,2.1824,2.1824,0,0,1,2.2324-2.3321,2.3656,2.3656,0,0,1-.0176,4.7178Zm-.0273-4.15c-.81,0-1.3232.6748-1.3232,1.7647,0,1.1523.4951,1.8183,1.3593,1.8183.8282,0,1.3233-.6845,1.3233-1.8281C205.0469,194.0137,204.5342,193.3477,203.6875,193.3477Z"></path>
  <path class="cls-6" d="M208.0889,197.4981a1.9556,1.9556,0,0,1-1.4317-.5761l.3955-.45a1.3185,1.3185,0,0,0,.9639.4589c.459,0,.7559-.2519.7559-.6572,0-.3418-.1172-.4951-.7559-.9541-.4775-.3428-1.0713-.7119-1.0713-1.3594a1.2923,1.2923,0,0,1,1.4219-1.18,1.8686,1.8686,0,0,1,1.1709.4053l-.3242.4141a1.3159,1.3159,0,0,0-.8194-.2881c-.3867,0-.666.207-.666.5039,0,.2344.126.3965.54.6934,1.0986.792,1.3418,1.08,1.3418,1.6748A1.3641,1.3641,0,0,1,208.0889,197.4981Z"></path>
  <path class="cls-6" d="M213.0479,197.4981a1.7094,1.7094,0,0,1-1.4317-.7119v2.8545h-.7832v-6.752h.7832v.6836a1.8733,1.8733,0,0,1,1.5938-.792,2.0372,2.0372,0,0,1,2.0078,2.26A2.2557,2.2557,0,0,1,213.0479,197.4981Zm-.0274-4.15c-.8457,0-1.4043.73-1.4043,1.8545,0,1.0713.5313,1.7285,1.4229,1.7285.98,0,1.3144-1.0175,1.3144-1.8545C214.3535,194.005,213.84,193.3477,213.0205,193.3477Z"></path>
  <path class="cls-6" d="M219.4023,197.39v-2.52a1.9351,1.9351,0,0,0-.1621-1.0264.9337.9337,0,0,0-.8916-.4687,1.1625,1.1625,0,0,0-1.1162.667,2.2417,2.2417,0,0,0-.126.9805V197.39h-.8105v-6.6084h.8105v2.6739a2.0641,2.0641,0,0,1,1.5577-.6749,1.3685,1.3685,0,0,1,1.4316.9,3.43,3.43,0,0,1,.1074,1.1885v2.52Z"></path>
  <path class="cls-6" d="M224.0811,197.39a1.4531,1.4531,0,0,1-.1348-.6748,1.7193,1.7193,0,0,1-1.459.7832,1.2175,1.2175,0,0,1-1.26-1.2695,1.4922,1.4922,0,0,1,.9268-1.3233,6.2172,6.2172,0,0,1,1.0352-.3876,7.0051,7.0051,0,0,1,.7568-.1709c-.0635-.585-.2793-1.044-.9727-1.044a1.7952,1.7952,0,0,0-1.1435.4854l-.3145-.4043a2.2509,2.2509,0,0,1,1.6026-.6036,1.6039,1.6039,0,0,1,1.3593.5674c.1983.2881.2784.4864.2784,1.2959v1.3057a3.1068,3.1068,0,0,0,.1982,1.44Zm-.1172-2.5117a4.2747,4.2747,0,0,0-.54.1172c-.7383.1621-1.3593.4951-1.3593,1.125a.6818.6818,0,0,0,.6933.7471,1.1926,1.1926,0,0,0,1.1074-.837,2.176,2.176,0,0,0,.1075-.7109Z"></path>
  <path class="cls-6" d="M227.5283,197.4981a1.2434,1.2434,0,0,1-1.0625-.5312c-.1621-.252-.1982-.4688-.1982-1.1709v-2.4307h-.63v-.4766h.63v-1.09l.8017-.2607v1.3505h1.1787v.4766h-1.1787v2.377c0,.9179.1436,1.1884.6387,1.1884a1.2116,1.2116,0,0,0,.6035-.1621l.1983.4414A1.8064,1.8064,0,0,1,227.5283,197.4981Z"></path>
  <path class="cls-6" d="M10.333,215.336v-3.124H7.2988v3.124h-.873v-6.3017h.873v2.5293H10.333v-2.5293h.8731v6.3017Z"></path>
  <path class="cls-6" d="M17.4609,210.1055a2.6756,2.6756,0,0,0-1.6655-.5488,2.3935,2.3935,0,0,0-2.4487,2.5928,2.502,2.502,0,0,0,2.5117,2.6641,2.76,2.76,0,0,0,1.5483-.459l.333.5136a3.596,3.596,0,0,1-2.0434.5762,3.1409,3.1409,0,0,1-3.313-3.2051,3.3041,3.3041,0,0,1,3.4482-3.3134,3.4,3.4,0,0,1,1.9893.6308Z"></path>
  <path class="cls-6" d="M21.4385,215.4444a3.1274,3.1274,0,0,1-3.1509-3.331,3.1511,3.1511,0,1,1,6.3018-.01A3.1249,3.1249,0,0,1,21.4385,215.4444Zm-.0362-5.8877c-1.458,0-2.1513,1.3233-2.1513,2.6279,0,1.3418.7021,2.629,2.1875,2.629,1.2964,0,2.1875-1.0528,2.1875-2.61C23.626,210.61,22.7529,209.5567,21.4023,209.5567Z"></path>
  <path class="cls-6" d="M26.5181,218.1046a2.3992,2.3992,0,0,1-1.023-.2344l.1582-.3565a1.7159,1.7159,0,0,0,.8.1934.801.801,0,0,0,.877-.8125.7485.7485,0,0,0-.5088-.7363,2.1478,2.1478,0,0,0-.8-.0879v-.3447a1.5248,1.5248,0,0,0,.7539-.2159.7484.7484,0,0,0,.3213-.6494.555.555,0,0,0-.62-.59,1.3786,1.3786,0,0,0-.7891.2744l-.1694-.3447a2.0013,2.0013,0,0,1,1.0581-.3272c.666,0,1.11.374,1.11.9356a1.1326,1.1326,0,0,1-.76,1.0107c.6661.1406,1.0166.5147,1.0166,1.0576A1.3075,1.3075,0,0,1,26.5181,218.1046Z"></path>
  <path class="cls-6" d="M28.5669,209.9971v-.4023h2.957v.4023Z"></path>
  <path class="cls-6" d="M154.9,215.3341V212.21h-3.0342v3.1241h-.873v-6.3018h.873v2.5293H154.9v-2.5293h.8735v6.3018Z"></path>
  <path class="cls-6" d="M158.7061,216a3.1311,3.1311,0,0,1-.7832,1.2158,1.8426,1.8426,0,0,1-1.2422.3691h-.19v-.6035h.1983a1.0718,1.0718,0,0,0,1.1435-.5937c.1084-.1807.3242-.64.63-1.3057l-1.8272-4.1055.792-.2158,1.3868,3.4844,1.4765-3.4844.666.1621Z"></path>
  <path class="cls-6" d="M165.0508,215.3341v-.7022a1.9243,1.9243,0,0,1-1.5752.8106,2.1183,2.1183,0,0,1-2.0254-2.35,2.2053,2.2053,0,0,1,2.1689-2.3681,1.6391,1.6391,0,0,1,1.4317.6748v-2.6738h.7744v6.6084Zm-1.3858-4.042c-.8291,0-1.35.6484-1.35,1.7011,0,1.1436.5312,1.8819,1.3408,1.8819.8379,0,1.4043-.7569,1.4043-1.8731C165.06,211.9669,164.5107,211.2921,163.665,211.2921Z"></path>
  <path class="cls-6" d="M169.4072,211.7237a1.4772,1.4772,0,0,0-.6025-.2246.699.699,0,0,0-.6309.5576,3.6615,3.6615,0,0,0-.1172,1.1436v2.1338h-.81v-4.501h.81v.63l.19-.2881a.9058.9058,0,0,1,.7383-.45,1.1509,1.1509,0,0,1,.8105.45Z"></path>
  <path class="cls-6" d="M172.2334,215.4425a2.2094,2.2094,0,0,1-2.2148-2.3858,2.1823,2.1823,0,0,1,2.2324-2.332,2.3656,2.3656,0,0,1-.0176,4.7178Zm-.0273-4.15c-.81,0-1.3233.6748-1.3233,1.7646,0,1.1524.4951,1.8184,1.3594,1.8184.8281,0,1.3232-.6846,1.3232-1.8281C173.5654,211.9581,173.0527,211.2921,172.2061,211.2921Z"></path>
  <path class="cls-6" d="M179.5146,215.8741a2.1035,2.1035,0,0,1-2.2861,1.7109,3.4835,3.4835,0,0,1-1.81-.4589l.2159-.5313a2.9465,2.9465,0,0,0,1.5215.4229,1.3992,1.3992,0,0,0,1.4941-.8731,3.22,3.22,0,0,0,.1445-1.1973v-.3242a1.803,1.803,0,0,1-1.53.8194,2.0952,2.0952,0,0,1-2.0527-2.3233,2.2418,2.2418,0,0,1,2.1787-2.3945,1.5677,1.5677,0,0,1,1.4043.72v-.6113h.8008v3.79A4.6206,4.6206,0,0,1,179.5146,215.8741Zm-2.124-4.582c-.8105,0-1.3144.6386-1.3144,1.7011,0,1.1348.54,1.8819,1.332,1.8819.8193,0,1.3867-.7656,1.3867-1.8731C178.7949,211.9493,178.2637,211.2921,177.3906,211.2921Z"></path>
  <path class="cls-6" d="M184.167,213.1378h-2.6641a1.5788,1.5788,0,0,0,1.5479,1.7373,2.1548,2.1548,0,0,0,1.18-.3877l.2343.4326a2.6871,2.6871,0,0,1-1.5937.5225,2.1369,2.1369,0,0,1-1.5664-.6211,2.5354,2.5354,0,0,1-.6572-1.8008,2.4,2.4,0,0,1,.5849-1.6475,2.02,2.02,0,0,1,1.5215-.6484,1.5615,1.5615,0,0,1,1.63,1.1162,4.4042,4.4042,0,0,1,.1709,1.2969Zm-.4053-.7481c-.0625-.666-.3955-1.0976-1.0166-1.0976-.6846,0-1.1523.5039-1.2158,1.332h2.2422A1.8065,1.8065,0,0,0,183.7617,212.39Z"></path>
  <path class="cls-6" d="M188.7656,215.3341v-2.52a1.9351,1.9351,0,0,0-.1611-1.0264.9348.9348,0,0,0-.8916-.4688,1.1605,1.1605,0,0,0-1.1162.667,2.2266,2.2266,0,0,0-.126.9805v2.3682h-.81v-4.501h.81V211.4a2.0506,2.0506,0,0,1,1.5576-.6748,1.3767,1.3767,0,0,1,1.4307.9,3.3947,3.3947,0,0,1,.1084,1.1885v2.52Z"></path>
  <path class="cls-6" d="M192.915,215.4425a2.2308,2.2308,0,0,1-2.26-2.3594,2.2813,2.2813,0,0,1,2.3672-2.3584,2.1512,2.1512,0,0,1,1.2695.3691l-.2793.45a1.8414,1.8414,0,0,0-.918-.2519,1.569,1.569,0,0,0-1.5752,1.7373c0,1.1347.6123,1.8457,1.5752,1.8457a1.778,1.778,0,0,0,1.08-.3516l.2256.45A2.3948,2.3948,0,0,1,192.915,215.4425Z"></path>
  <path class="cls-6" d="M197.8193,215.3341a1.4545,1.4545,0,0,1-.1347-.6748,1.7193,1.7193,0,0,1-1.459.7832,1.2175,1.2175,0,0,1-1.26-1.27,1.4922,1.4922,0,0,1,.9268-1.3232,6.22,6.22,0,0,1,1.0351-.3877,7.0123,7.0123,0,0,1,.7569-.1709c-.0635-.585-.2793-1.044-.9727-1.044a1.792,1.792,0,0,0-1.1435.4864l-.3145-.4053a2.2507,2.2507,0,0,1,1.6025-.6035,1.604,1.604,0,0,1,1.3594.5674c.1983.2881.2783.4863.2783,1.2959v1.3056a3.107,3.107,0,0,0,.1983,1.4405Zm-.1172-2.5118a4.2773,4.2773,0,0,0-.54.1172c-.7383.1621-1.3594.4951-1.3594,1.125a.6819.6819,0,0,0,.6934.7471,1.1925,1.1925,0,0,0,1.1074-.8369,2.1747,2.1747,0,0,0,.1074-.711Z"></path>
  <path class="cls-6" d="M202.0674,211.7237a1.4781,1.4781,0,0,0-.6026-.2246.6989.6989,0,0,0-.6308.5576,3.6584,3.6584,0,0,0-.1172,1.1436v2.1338h-.81v-4.501h.81v.63l.1895-.2881a.9056.9056,0,0,1,.7382-.45,1.1511,1.1511,0,0,1,.8106.45Z"></path>
  <path class="cls-6" d="M205.209,215.4425a1.7083,1.7083,0,0,1-1.4317-.712v.6036h-.7832v-6.6084h.7832v2.791a1.8731,1.8731,0,0,1,1.5938-.792,2.0364,2.0364,0,0,1,2.0068,2.26A2.2549,2.2549,0,0,1,205.209,215.4425Zm-.0274-4.15c-.8466,0-1.4043.7285-1.4043,1.8545,0,1.0712.5313,1.7285,1.4219,1.7285a1.0577,1.0577,0,0,0,.8379-.3418,2.3243,2.3243,0,0,0,.4766-1.5127C206.5137,211.9493,206.001,211.2921,205.1816,211.2921Z"></path>
  <path class="cls-6" d="M210.3652,215.4425a2.2094,2.2094,0,0,1-2.2148-2.3858,2.1824,2.1824,0,0,1,2.2324-2.332,2.3656,2.3656,0,0,1-.0176,4.7178Zm-.0273-4.15c-.81,0-1.3233.6748-1.3233,1.7646,0,1.1524.4952,1.8184,1.3594,1.8184.8281,0,1.3233-.6846,1.3233-1.8281C211.6973,211.9581,211.1846,211.2921,210.3379,211.2921Z"></path>
  <path class="cls-6" d="M216.873,215.3341v-2.52a1.9326,1.9326,0,0,0-.1621-1.0264.9347.9347,0,0,0-.8916-.4688,1.1606,1.1606,0,0,0-1.1162.667,2.2266,2.2266,0,0,0-.126.9805v2.3682h-.81v-4.501h.81V211.4a2.0508,2.0508,0,0,1,1.5577-.6748,1.3765,1.3765,0,0,1,1.4306.9,3.3922,3.3922,0,0,1,.1084,1.1885v2.52Z"></path>
  <path class="cls-6" d="M221.6152,215.3341a1.4545,1.4545,0,0,1-.1347-.6748,1.7193,1.7193,0,0,1-1.459.7832,1.2175,1.2175,0,0,1-1.26-1.27,1.4922,1.4922,0,0,1,.9268-1.3232,6.22,6.22,0,0,1,1.0351-.3877,7.0123,7.0123,0,0,1,.7569-.1709c-.0635-.585-.2793-1.044-.9727-1.044a1.792,1.792,0,0,0-1.1435.4864l-.3145-.4053a2.2507,2.2507,0,0,1,1.6025-.6035,1.604,1.604,0,0,1,1.3594.5674c.1983.2881.2793.4863.2793,1.2959v1.3056a3.11,3.11,0,0,0,.1973,1.4405Zm-.1172-2.5118a4.2773,4.2773,0,0,0-.54.1172c-.7383.1621-1.3594.4951-1.3594,1.125a.6819.6819,0,0,0,.6934.7471,1.1925,1.1925,0,0,0,1.1074-.8369,2.1747,2.1747,0,0,0,.1074-.711Z"></path>
  <path class="cls-6" d="M225.0625,215.4425A1.2422,1.2422,0,0,1,224,214.9112c-.1621-.2519-.1982-.4687-.1982-1.1709V211.31h-.63v-.4765h.63v-1.09l.8017-.2607v1.3506h1.1787v.4765h-1.1787v2.377c0,.918.1436,1.1885.6387,1.1885a1.2116,1.2116,0,0,0,.6035-.1621l.1982.4414A1.8069,1.8069,0,0,1,225.0625,215.4425Z"></path>
</svg>
